<svg width="200" height="200" viewBox="0 0 200 200" fill="none" xmlns="http://www.w3.org/2000/svg">
<path d="M106.947 115.152C119.606 115.152 129.869 104.889 129.869 92.2301C129.869 79.5708 119.606 69.3085 106.947 69.3085C94.2877 69.3085 84.0254 79.5708 84.0254 92.2301C84.0254 104.889 94.2877 115.152 106.947 115.152Z" fill="white" stroke="#191717" stroke-width="3" stroke-linejoin="round"/>
<path d="M74.4309 162.085C67.197 161.833 59.1961 161.955 51.785 159.768C43.6654 157.372 38.5482 148.697 43.0554 138.566C44.9438 134.326 48.8466 130.964 53.4323 130.166C58.0181 129.367 65.5752 129.983 69.0032 135.106C71.4851 128.88 75.5942 124.079 82.2838 123.474C88.9735 122.87 95.0093 125.936 98.5961 131.608C99.975 116.713 111.718 103.37 126.334 99.9808C140.949 96.5913 157.347 103.345 165.374 115.984C169.609 122.652 171.501 131.479 167.766 138.437C173.698 134.602 181.427 137.535 184.325 143.048C188.266 150.547 184.535 158.104 180.505 160.648C176.027 163.473 163.226 162.549 143.311 162.549C110.562 162.54 93.6743 162.759 74.4309 162.085Z" fill="white" stroke="#191717" stroke-width="3" stroke-linejoin="round"/>
<path d="M132.113 69.1004L152.049 52.4667" stroke="#191717" stroke-width="3" stroke-linejoin="round"/>
<path d="M123.803 61.6821L131.449 45.189" stroke="#191717" stroke-width="3" stroke-linejoin="round"/>
<path d="M137.506 79.0956L152.043 75.8338" stroke="#191717" stroke-width="3" stroke-linejoin="round"/>
<path d="M153.955 75.3115L158.866 74.2175" stroke="#191717" stroke-width="3" stroke-linejoin="round"/>
<path d="M150.664 110.367C155.739 112.82 159.874 117.307 162.016 122.672" stroke="#191717" stroke-width="3" stroke-linejoin="round"/>
<path d="M75.3497 88.753C56.6231 88.3475 48.6131 88.3019 29.8755 88.3019C26.6229 88.3019 18.2567 89.1584 14.2791 84.894C10.7361 81.0954 11.7223 73.8907 14.522 70.7842C17.3217 67.6777 22.3549 65.9629 27.2109 67.4969C28.409 67.8768 30.701 69.3981 31.1813 70.4993C30.8452 67.8859 29.8444 63.9065 31.7638 59.2422C33.097 56.0005 36.9833 52.4375 42.5553 51.2577C48.3136 50.0396 53.0071 50.9801 57.3116 53.8473C59.4913 55.3258 61.2561 57.3377 62.438 59.6914C63.3055 61.4008 64.0725 64.2772 63.4315 66.0633C64.2113 63.9941 66.4649 61.567 69.292 60.5845C72.5501 59.4449 76.3725 59.854 79.2196 61.8629C81.6358 63.5631 83.5863 67.6777 82.7736 70.4683C84.5231 68.3662 88.5519 68.4703 91.2822 69.8163C93.5687 70.9468 95.09 73.3721 95.72 75.3791C96.2935 77.2054 96.2679 79.4207 95.51 81.7711C94.9146 83.5974 93.649 85.1515 92.0547 86.2491C90.2138 87.5275 88.5574 87.9202 86.2435 88.2343C82.4868 88.7603 79.1484 88.8351 75.3497 88.753Z" fill="white" stroke="#191717" stroke-width="3" stroke-linejoin="round"/>
<path d="M44.2592 56.594C42.0677 56.8661 40.0424 57.9126 38.7804 59.3334C37.3515 60.8856 36.5548 62.9161 36.5469 65.0259" stroke="#191717" stroke-width="3" stroke-linejoin="round"/>
<path d="M175.379 143.112C176.162 143.245 177.839 144.465 178.301 145.024C179.915 146.934 180.492 149.422 179.855 151.626" stroke="#191717" stroke-width="3" stroke-linejoin="round"/>
<path d="M111.166 60.8986L112.107 46.7011" stroke="#191717" stroke-width="3" stroke-linejoin="round"/>
<path d="M112.34 42.561L112.765 36.9999" stroke="#191717" stroke-width="3" stroke-linejoin="round"/>
<path d="M98.7933 59.9563L93.4551 41.0561" stroke="#191717" stroke-width="3" stroke-linejoin="round"/>
<path d="M138.725 89.8468L156.542 93.4373" stroke="#191717" stroke-width="3" stroke-linejoin="round"/>
<path d="M22.7943 72.8096C21.5451 72.4736 20.3672 73.0927 19.6403 73.8031C18.9763 74.4287 18.4747 75.2066 18.1788 76.0695C17.8828 76.9325 17.8015 77.8545 17.9419 78.7559" stroke="#191717" stroke-width="3" stroke-linejoin="round"/>
</svg>
