<svg width="200" height="200" viewBox="0 0 200 200" fill="none" xmlns="http://www.w3.org/2000/svg">
<path d="M62.478 64.276H33.9629V92.8753H62.478V64.276Z" fill="white" stroke="#191717" stroke-width="3" stroke-linejoin="round"/>
<path d="M41.682 70.3736L37.25 75.207L50.585 88.1266L69.7614 59.9236L64.9859 56.0374L49.6114 78.1201L41.682 70.3736Z" fill="white" stroke="#191717" stroke-width="3" stroke-linejoin="round"/>
<path d="M59.5151 108.567H31V137.166H59.5151V108.567Z" fill="white" stroke="#191717" stroke-width="3" stroke-linejoin="round"/>
<path d="M38.7208 114.666L34.2871 119.498L47.6221 132.417L66.8001 104.214L62.0246 100.328L46.6502 122.411L38.7208 114.666Z" fill="white" stroke="#191717" stroke-width="3" stroke-linejoin="round"/>
<path d="M92.8901 142.401H64.375V171H92.8901V142.401Z" fill="white" stroke="#191717" stroke-width="3" stroke-linejoin="round"/>
<path d="M72.0942 148.5L67.6621 153.331L80.9971 166.251L100.175 138.048L95.398 134.162L80.0236 156.245L72.0942 148.5Z" fill="white" stroke="#191717" stroke-width="3" stroke-linejoin="round"/>
<path d="M140.851 138.445H112.336V167.044H140.851V138.445Z" fill="white" stroke="#191717" stroke-width="3" stroke-linejoin="round"/>
<path d="M120.055 144.542L115.623 149.375L128.956 162.295L148.134 134.092L143.359 130.206L127.984 152.288L120.055 144.542Z" fill="white" stroke="#191717" stroke-width="3" stroke-linejoin="round"/>
<path d="M162.716 93.9836H134.201V122.583H162.716V93.9836Z" fill="white" stroke="#191717" stroke-width="3" stroke-linejoin="round"/>
<path d="M141.92 100.082L137.488 104.916L150.822 117.835L170 89.6325L165.224 85.7462L149.85 107.829L141.92 100.082Z" fill="white" stroke="#191717" stroke-width="3" stroke-linejoin="round"/>
<path d="M150.968 51.6328H122.453V80.2321H150.968V51.6328Z" fill="white" stroke="#191717" stroke-width="3" stroke-linejoin="round"/>
<path d="M130.172 57.7317L125.74 62.5636L139.075 75.4847L158.252 47.2818L153.476 43.3939L138.102 65.4783L130.172 57.7317Z" fill="white" stroke="#191717" stroke-width="3" stroke-linejoin="round"/>
<path d="M106.747 36.2389H78.2324V64.8382H106.747V36.2389Z" fill="white" stroke="#191717" stroke-width="3" stroke-linejoin="round"/>
<path d="M85.9496 42.3362L81.5176 47.1697L94.8526 60.0892L114.031 31.8862L109.253 28L93.879 50.0827L85.9496 42.3362Z" fill="white" stroke="#191717" stroke-width="3" stroke-linejoin="round"/>
<path d="M156.105 142.589H167.333" stroke="#191717" stroke-width="3" stroke-linejoin="round"/>
<path d="M153.438 137.465H158.966" stroke="#191717" stroke-width="3" stroke-linejoin="round"/>
<path d="M47.2773 46.7067H59.2776" stroke="#191717" stroke-width="3" stroke-linejoin="round"/>
<path d="M63.4824 46.7067H68.7682" stroke="#191717" stroke-width="3" stroke-linejoin="round"/>
</svg>
